<svg viewBox="0 0 180 180" xmlns="http://www.w3.org/2000/svg"><g fill="none" fill-rule="evenodd"><circle fill="#FFF" cx="90" cy="90" r="90"/><path d="M138.23 14a90.435 90.435 0 0 1 17.008 14H24.762A90.435 90.435 0 0 1 41.77 14h96.458zm27.915 28a89.714 89.714 0 0 1 7.211 14H6.644c2-4.897 4.418-9.579 7.21-14h152.291zm11.625 28a89.93 89.93 0 0 1 2.033 14H.197A89.93 89.93 0 0 1 2.23 70h175.54zm1.88 28a89.752 89.752 0 0 1-2.358 14H2.708A89.752 89.752 0 0 1 .351 98h179.298zm-7.139 28a89.813 89.813 0 0 1-7.666 14H15.155a89.813 89.813 0 0 1-7.666-14H172.51zm-19.234 28a90.344 90.344 0 0 1-18.347 14H45.07a90.344 90.344 0 0 1-18.347-14h126.554z" fill="#FFF"/><path d="M90 42h76.145a90.38 90.38 0 0 0-10.907-14H90v14zm0-42c17.744 0 34.289 5.135 48.23 14H90V0zm0 70h87.77a89.307 89.307 0 0 0-4.414-14H90v14zM0 90c0 2.696.119 5.364.35 8h179.3a91.162 91.162 0 0 0 .153-14H90v6H0zm177.292 22a89.319 89.319 0 0 1-4.78 14H7.488a89.319 89.319 0 0 1-4.78-14h174.583zm-12.447 28a90.446 90.446 0 0 1-11.568 14H26.723a90.446 90.446 0 0 1-11.568-14h149.69zm-29.915 28c-13.222 7.633-28.566 12-44.93 12s-31.708-4.367-44.93-12h89.86z" fill="#CA4638"/><path d="M90 0C40.294 0 0 40.294 0 90h90V0z" fill="#346DA6"/><g fill="#FFF"><path d="M34.414 34.463L31.686 36l.521-3.256L30 30.438l3.05-.475L34.414 27l1.364 2.963 3.05.475-2.206 2.306.52 3.256-2.728-1.537zM34.414 50.463L31.686 52l.521-3.256L30 46.438l3.05-.475L34.414 43l1.364 2.963 3.05.475-2.206 2.306.52 3.256-2.728-1.537zM23.414 44.463L20.686 46l.521-3.256L19 40.438l3.05-.475L23.414 37l1.364 2.963 3.05.475-2.206 2.306.52 3.256-2.728-1.537zM22.414 59.463L19.686 61l.521-3.256L18 55.438l3.05-.475L22.414 52l1.364 2.963 3.05.475-2.206 2.306.52 3.256-2.728-1.537zM32.414 69.463L29.686 71l.521-3.256L28 65.438l3.05-.475L32.414 62l1.364 2.963 3.05.475-2.206 2.306.52 3.256-2.728-1.537zM22.414 75.463L19.686 77l.521-3.256L18 71.438l3.05-.475L22.414 68l1.364 2.963 3.05.475-2.206 2.306.52 3.256-2.728-1.537zM11.414 67.463L8.686 69l.521-3.256L7 63.438l3.05-.475L11.414 60l1.364 2.963 3.05.475-2.206 2.306.52 3.256-2.728-1.537zM11.414 83.463L8.686 85l.521-3.256L7 79.438l3.05-.475L11.414 76l1.364 2.963 3.05.475-2.206 2.306.52 3.256-2.728-1.537zM34.414 83.463L31.686 85l.521-3.256L30 79.438l3.05-.475L34.414 76l1.364 2.963 3.05.475-2.206 2.306.52 3.256-2.728-1.537zM80.414 16.463L77.686 18l.521-3.256L76 12.438l3.05-.475L80.414 9l1.364 2.963 3.05.475-2.206 2.306.52 3.256-2.728-1.537zM80.414 32.463L77.686 34l.521-3.256L76 28.438l3.05-.475L80.414 25l1.364 2.963 3.05.475-2.206 2.306.52 3.256-2.728-1.537zM80.414 48.463L77.686 50l.521-3.256L76 44.438l3.05-.475L80.414 41l1.364 2.963 3.05.475-2.206 2.306.52 3.256-2.728-1.537zM80.414 64.463L77.686 66l.521-3.256L76 60.438l3.05-.475L80.414 57l1.364 2.963 3.05.475-2.206 2.306.52 3.256-2.728-1.537zM68.414 25.463L65.686 27l.521-3.256L64 21.438l3.05-.475L68.414 18l1.364 2.963 3.05.475-2.206 2.306.52 3.256-2.728-1.537zM68.414 41.463L65.686 43l.521-3.256L64 37.438l3.05-.475L68.414 34l1.364 2.963 3.05.475-2.206 2.306.52 3.256-2.728-1.537zM68.414 57.463L65.686 59l.521-3.256L64 53.438l3.05-.475L68.414 50l1.364 2.963 3.05.475-2.206 2.306.52 3.256-2.728-1.537zM68.414 73.463L65.686 75l.521-3.256L64 69.438l3.05-.475L68.414 66l1.364 2.963 3.05.475-2.206 2.306.52 3.256-2.728-1.537zM80.414 81.463L77.686 83l.521-3.256L76 77.438l3.05-.475L80.414 74l1.364 2.963 3.05.475-2.206 2.306.52 3.256-2.728-1.537zM58.414 18.463L55.686 20l.521-3.256L54 14.438l3.05-.475L58.414 11l1.364 2.963 3.05.475-2.206 2.306.52 3.256-2.728-1.537zM58.414 34.463L55.686 36l.521-3.256L54 30.438l3.05-.475L58.414 27l1.364 2.963 3.05.475-2.206 2.306.52 3.256-2.728-1.537zM58.414 50.463L55.686 52l.521-3.256L54 46.438l3.05-.475L58.414 43l1.364 2.963 3.05.475-2.206 2.306.52 3.256-2.728-1.537zM58.414 66.463L55.686 68l.521-3.256L54 62.438l3.05-.475L58.414 59l1.364 2.963 3.05.475-2.206 2.306.52 3.256-2.728-1.537zM46.414 27.463L43.686 29l.521-3.256L42 23.438l3.05-.475L46.414 20l1.364 2.963 3.05.475-2.206 2.306.52 3.256-2.728-1.537zM46.414 43.463L43.686 45l.521-3.256L42 39.438l3.05-.475L46.414 36l1.364 2.963 3.05.475-2.206 2.306.52 3.256-2.728-1.537zM46.414 59.463L43.686 61l.521-3.256L42 55.438l3.05-.475L46.414 52l1.364 2.963 3.05.475-2.206 2.306.52 3.256-2.728-1.537zM46.414 75.463L43.686 77l.521-3.256L42 71.438l3.05-.475L46.414 68l1.364 2.963 3.05.475-2.206 2.306.52 3.256-2.728-1.537zM58.414 83.463L55.686 85l.521-3.256L54 79.438l3.05-.475L58.414 76l1.364 2.963 3.05.475-2.206 2.306.52 3.256-2.728-1.537z"/></g></g></svg>