<?xml version="1.0" encoding="UTF-8" standalone="no"?>
<!DOCTYPE svg PUBLIC "-//W3C//DTD SVG 1.1//EN" "http://www.w3.org/Graphics/SVG/1.1/DTD/svg11.dtd">
<svg width="100%" height="100%" viewBox="0 0 1008 256" version="1.1" xmlns="http://www.w3.org/2000/svg" xmlns:xlink="http://www.w3.org/1999/xlink" xml:space="preserve" xmlns:serif="http://www.serif.com/" style="fill-rule:evenodd;clip-rule:evenodd;stroke-linejoin:round;stroke-miterlimit:2;">
    <g transform="matrix(1,0,0,1,-6.70356,-6.2)">
        <g id="path14499" transform="matrix(1,0,0,1,-32,-145)">
            <path d="M223.1,170.6C211.3,157.1 189.9,151.3 162.5,151.3L83.1,151.3C77.5,151.3 72.7,155.4 71.9,160.9L38.8,370.7C38.1,374.8 41.3,378.6 45.5,378.6L94.6,378.6L106.9,300.5L106.5,302.9C107.4,297.4 112.1,293.3 117.7,293.3L141,293.3C186.8,293.3 222.6,274.7 233.1,220.9C233.4,219.3 233.7,217.8 233.9,216.2C232.6,215.5 232.6,215.5 233.9,216.2C237,196.4 233.9,182.8 223.1,170.6" style="fill:rgb(0,48,135);fill-rule:nonzero;"/>
        </g>
        <g id="path14519" transform="matrix(1,0,0,1,-32,-145)">
            <path d="M729.9,269.8L703.5,269.8C701,269.8 698.6,271.1 697.2,273.1L660.8,326.7L645.4,275.2C644.4,272 641.5,269.8 638.1,269.8L612.2,269.8C609.1,269.8 606.9,272.9 607.9,275.8L637,361.1L609.7,399.7C607.6,402.7 609.7,406.9 613.4,406.9L639.8,406.9C642.3,406.9 644.6,405.7 646.1,403.6L733.7,277C735.8,273.9 733.6,269.8 729.9,269.8M553.4,320.9C550.9,335.9 539,346 523.8,346C516.2,346 510.1,343.5 506.2,338.9C502.3,334.3 500.9,327.7 502.1,320.5C504.5,305.6 516.6,295.2 531.5,295.2C539,295.2 545,297.7 549,302.4C553,307.1 554.6,313.7 553.4,320.9M590,269.8L563.7,269.8C561.5,269.8 559.5,271.4 559.2,273.7L558,281L556.2,278.3C550.5,270 537.8,267.3 525.2,267.3C496.2,267.3 471.4,289.3 466.6,320.1C464.1,335.5 467.7,350.2 476.4,360.5C484.4,369.9 495.8,373.9 509.5,373.9C532.9,373.9 545.9,358.9 545.9,358.9L544.7,366.2C544.3,369 546.4,371.5 549.2,371.5L572.8,371.5C576.6,371.5 579.7,368.8 580.3,365.1L594.5,275.2C595,272.3 592.8,269.8 590,269.8M432.4,270.4C429.4,290.1 414.4,290.1 399.8,290.1L391.5,290.1L397.3,253.3C397.6,251.1 399.6,249.4 401.8,249.4L405.6,249.4C415.5,249.4 424.8,249.4 429.7,255C432.6,258.5 433.5,263.5 432.4,270.4M426.1,219.1L371.3,219.1C367.5,219.1 364.4,221.8 363.8,225.5L341.6,366.1C341.2,368.9 343.3,371.4 346.1,371.4L372.3,371.4C376,371.4 379.2,368.7 379.8,365L385.8,327.1C386.4,323.4 389.6,320.7 393.3,320.7L410.7,320.7C446.8,320.7 467.7,303.2 473.1,268.6C475.6,253.5 473.2,241.5 466.1,233.2C458.3,223.9 444.4,219.1 426.1,219.1" style="fill:rgb(0,47,134);fill-rule:nonzero;"/>
        </g>
        <g id="path14523" transform="matrix(1,0,0,1,-32,-145)">
            <path d="M1012.2,222.9L989.7,366.1C989.3,368.9 991.4,371.4 994.2,371.4L1016.8,371.4C1020.5,371.4 1023.7,368.7 1024.3,365L1046.5,224.4C1046.9,221.6 1044.8,219.1 1042,219.1L1016.7,219.1C1014.5,219.1 1012.5,220.7 1012.2,222.9M944.6,320.9C942.1,335.9 930.2,346 915,346C907.4,346 901.3,343.5 897.4,338.9C893.5,334.3 892.1,327.7 893.3,320.5C895.7,305.6 907.8,295.2 922.7,295.2C930.2,295.2 936.2,297.7 940.2,302.4C944.2,307.1 945.8,313.7 944.6,320.9M981.2,269.8L955,269.8C952.8,269.8 950.8,271.4 950.5,273.7L949.3,281L947.5,278.3C941.8,270 929.1,267.3 916.5,267.3C887.5,267.3 862.7,289.3 857.9,320.1C855.4,335.5 859,350.2 867.7,360.5C875.7,369.9 887.1,373.9 900.8,373.9C924.2,373.9 937.2,358.9 937.2,358.9L936,366.2C935.6,369 937.7,371.5 940.5,371.5L964,371.5C967.8,371.5 970.9,368.8 971.5,365.1L985.7,275.2C986.2,272.3 984,269.8 981.2,269.8M823.6,270.4C820.6,290.1 805.6,290.1 791,290.1L782.7,290.1L788.5,253.3C788.8,251.1 790.8,249.4 793,249.4L796.8,249.4C806.7,249.4 816,249.4 820.9,255C823.8,258.5 824.7,263.5 823.6,270.4M817.3,219.1L762.5,219.1C758.7,219.1 755.6,221.8 755,225.5L732.8,366.1C732.4,368.9 734.5,371.4 737.3,371.4L765.4,371.4C768,371.4 770.3,369.5 770.7,366.9L777,327C777.6,323.3 780.8,320.6 784.5,320.6L801.9,320.6C838,320.6 858.9,303.1 864.3,268.5C866.8,253.4 864.4,241.4 857.3,233.1C849.5,223.9 835.6,219.1 817.3,219.1" style="fill:rgb(0,156,222);fill-rule:nonzero;"/>
        </g>
        <g id="path14527" transform="matrix(1,0,0,1,-32,-145)">
            <path d="M223.1,170.6C211.3,157.1 189.9,151.3 162.5,151.3L83.1,151.3C77.5,151.3 72.7,155.4 71.9,160.9L38.8,370.7C38.1,374.8 41.3,378.6 45.5,378.6L94.6,378.6L106.9,300.5L106.5,302.9C107.4,297.4 112.1,293.3 117.7,293.3L141,293.3C186.8,293.3 222.6,274.7 233.1,220.9C233.4,219.3 233.7,217.8 233.9,216.2C232.6,215.5 232.6,215.5 233.9,216.2C237,196.4 233.9,182.8 223.1,170.6" style="fill:rgb(0,48,135);fill-rule:nonzero;"/>
        </g>
        <g id="path14531" transform="matrix(1,0,0,1,-32,-145)">
            <path d="M120.1,216.5C120.6,213.2 122.8,210.5 125.6,209.1C126.9,208.5 128.4,208.1 129.9,208.1L192.2,208.1C199.6,208.1 206.5,208.6 212.7,209.6C214.5,209.9 216.3,210.2 217.9,210.6C219.6,211 221.2,211.4 222.8,211.9C223.6,212.1 224.4,212.4 225.2,212.6C228.3,213.6 231.2,214.8 233.8,216.2C236.9,196.3 233.8,182.8 223,170.5C211.2,157 189.8,151.2 162.4,151.2L83.1,151.2C77.5,151.2 72.7,155.3 71.9,160.8L38.8,370.7C38.1,374.8 41.3,378.6 45.5,378.6L94.6,378.6L106.9,300.5L120.1,216.5Z" style="fill:rgb(0,47,134);fill-rule:nonzero;"/>
        </g>
        <g id="path14535" transform="matrix(1,0,0,1,-32,-145)">
            <path d="M233.9,216.3C233.7,217.8 233.4,219.4 233.1,221C222.6,274.8 186.8,293.4 141,293.4L117.7,293.4C112.1,293.4 107.4,297.5 106.5,303L94.6,378.7L91.2,400.2C90.6,403.8 93.4,407.1 97.1,407.1L138.4,407.1C143.3,407.1 147.5,403.5 148.2,398.7L148.6,396.6L156.4,347.2L156.9,344.5C157.7,339.7 161.8,336.1 166.7,336.1L172.9,336.1C213,336.1 244.3,319.8 253.5,272.8C257.3,253.1 255.3,236.7 245.2,225.2C242.2,221.5 238.4,218.6 233.9,216.3" style="fill:rgb(0,156,222);fill-rule:nonzero;"/>
        </g>
        <g id="path14539" transform="matrix(1,0,0,1,-32,-145)">
            <path d="M223,211.9C221.4,211.4 219.8,211 218.1,210.6C216.4,210.2 214.6,209.9 212.9,209.6C206.6,208.6 199.7,208.1 192.3,208.1L130,208.1C128.5,208.1 127,208.4 125.7,209.1C122.8,210.5 120.7,213.2 120.2,216.5L107,300.4L106.6,302.8C107.5,297.3 112.2,293.2 117.8,293.2L141,293.2C186.8,293.2 222.6,274.6 233.1,220.8C233.4,219.2 233.7,217.7 233.9,216.1C231.2,214.7 228.4,213.5 225.3,212.5C224.5,212.4 223.8,212.1 223,211.9" style="fill:rgb(1,32,105);fill-rule:nonzero;"/>
        </g>
    </g>
</svg>
